<svg id="图层_1" data-name="图层 1" xmlns="http://www.w3.org/2000/svg" viewBox="0 0 283.46 60.48"><defs><style>.cls-1{fill:#194e9e;}</style></defs><title>Trustoracle</title><polygon class="cls-1" points="18.39 14.05 17.4 19.62 27.13 19.62 22.4 46.43 29.88 46.43 34.61 19.62 44.4 19.62 45.38 14.05 18.39 14.05"/><path class="cls-1" d="M149.73,34.86c-.53,3-1.33,6.64-5.81,6.64-4.31,0-4-3.64-3.5-6.64.5-2.84,1.52-6.59,5.84-6.59,4.48,0,4,3.75,3.47,6.59m5.19-8.51q-2.21-3.12-7.61-3.12c-3.5,0-6.84.93-9.11,3s-3.32,5.08-4.06,8.79c-.71,3.55-.3,6.33,1.24,8.36s4,3,7.29,3,6.72-.8,9.07-2.78,3.54-5,4.26-8.62.38-6.6-1.08-8.68"/><path class="cls-1" d="M250.49,31.92a5.75,5.75,0,0,1,5.21-3.72,4.26,4.26,0,0,1,3.45,1.09,5.22,5.22,0,0,1,1.5,2.63Zm5.77-8.75c-7.07,0-11.86,4.13-12.69,11.64-.49,7.36,4.52,11.24,10.38,11.58a16.42,16.42,0,0,0,10.13-2.68l.6-4.25a15.36,15.36,0,0,1-9.19,2c-3.79-.4-5.73-2.51-5.93-4.8h16.15a35.16,35.16,0,0,0,.35-3.67c0-4.74-2.61-9.73-9.8-9.8"/><path class="cls-1" d="M73.8,46.41H85l4-23.22H81.86l-3,17.43H74.65a1.66,1.66,0,0,1-1.77-2L75.56,23.2H68.32L65.89,37.43c-1.12,4.81,2.15,9.3,7.91,9"/><path class="cls-1" d="M193.77,41.73h-3.2c-2,0-2.9-.68-2.9-2s1.47-2,3.68-2.57c1.31-.31,2.76-.71,3.38-.84-.55,3.25-1,5.45-1,5.45m1.14-18.49A34,34,0,0,0,184,25.13l-1.16,6.32a23.87,23.87,0,0,1,10-2.88c1.85,0,2.65.8,2.37,1.94s-1.91,1.73-5,2.07c-6.26.88-9.63,3.29-10.26,7.36-.28,3.67,3.46,6.46,6.57,6.48h13.56l.63-3.68,1.78-10.22c1.09-6-2.74-9.28-7.62-9.28"/><path class="cls-1" d="M222.94,40.41c-.56.16-2.05.46-3.23.68a28.32,28.32,0,0,1-4.08.39c-4.43,0-4.52-3.34-4.48-4.06,0-.28.06-.58.1-.89a9.56,9.56,0,0,1,3.34-6,11.38,11.38,0,0,1,2.68-1.4,12.71,12.71,0,0,1,6.11-.36l.14,0,.62.15.48.14.91-5.14a26.29,26.29,0,0,0-5.71-.76H219a14.61,14.61,0,0,0-5.13.88,13.22,13.22,0,0,0-4.15,2.44,13.85,13.85,0,0,0-3,3.7A15.14,15.14,0,0,0,205,34.85a12.8,12.8,0,0,0-.14,4.63,7.92,7.92,0,0,0,1.53,3.67,7.73,7.73,0,0,0,3.23,2.41,12.54,12.54,0,0,0,5,.86h.09s.56,0,1.51,0h0a28.77,28.77,0,0,0,5.84-1Z"/><path class="cls-1" d="M64.79,23.4a22.27,22.27,0,0,0-13,2.18c.2-1.11.17-1.19.38-2.38H45.52L41.43,46.43h6.64l.93-5.3c0-.05.67-3.49.93-4.17,1-2.37,4.34-8.34,13.77-7.37Z"/><path class="cls-1" d="M180.83,23.4c-6.91-.73-11.44,1.3-13,2.18.19-1.11.17-1.19.38-2.38h-6.63l-4.09,23.23h6.64l.93-5.3c0-.05.68-3.49.93-4.17,1-2.37,4.34-8.34,13.78-7.37Z"/><path class="cls-1" d="M108.54,28.9l.85-4.79a22.27,22.27,0,0,0-12.71.09s-5.16,1.46-5.16,6.18A6.72,6.72,0,0,0,91.69,32,5.28,5.28,0,0,0,93.86,35a3.83,3.83,0,0,0,.82.5,9.25,9.25,0,0,0,1.37.58,25.34,25.34,0,0,0,3,.82,3.63,3.63,0,0,1,2,1,1.6,1.6,0,0,1,.15,1.82,2.08,2.08,0,0,1-.9.76C98.94,41,96.39,42,90,40.43l-.89,5a27.72,27.72,0,0,0,6.73.92h0a20.8,20.8,0,0,0,6.84-.87,8.38,8.38,0,0,0,3.47-2.48,5.94,5.94,0,0,0,1.36-3.45,1.52,1.52,0,0,0,0-.27v-.13a5.39,5.39,0,0,0-.76-3A5.87,5.87,0,0,0,105.72,35a11,11,0,0,0-3.49-1.66l-.22-.06h0a14.47,14.47,0,0,1-3.69-1.36h0a1.64,1.64,0,0,1-.78-1.71,1.91,1.91,0,0,1,1-1.31,6.12,6.12,0,0,1,1.68-.54,18.11,18.11,0,0,1,4.23-.1l.35,0H105a21.52,21.52,0,0,1,3.58.66"/><path class="cls-1" d="M130.09,39.62a27.61,27.61,0,0,1-5.82,1.11c-1.22,0-2-.31-1.65-2.44l1.66-9.48h7.45l1-5.6h-7.44l1.54-8.79h-7.23L118,23.2h-4.93l-1,5.61h4.93l-1.93,11c-.92,5.24,2.27,6.6,6.52,6.6a57.26,57.26,0,0,0,7.42-.94Z"/><path class="cls-1" d="M235.55,40.42c-1-.08-1.58-.59-1.25-2.44l4.19-23.51h-7.14l-4.47,25.36c-.83,4.69,1.57,6.29,5.14,6.57a16.9,16.9,0,0,0,2.23,0h.06l.23,0a31.47,31.47,0,0,0,4.35-.74h0c.58-.13,1.1-.27,1.55-.41l1.11-6.31c-3.7,1.48-5.42,1.56-6,1.53"/></svg>